<?xml version="1.0" encoding="UTF-8"?>
<svg version="1.1" xmlns="http://www.w3.org/2000/svg" width="400" height="400">
<path d="M0 0 C3 1 3 1 3.87397766 2.74687195 C4.10932724 3.51191544 4.34467682 4.27695892 4.5871582 5.06518555 C4.86260468 5.93943176 5.13805115 6.81367798 5.42184448 7.7144165 C5.71189362 8.67877625 6.00194275 9.64313599 6.30078125 10.63671875 C6.77017624 12.14549591 6.77017624 12.14549591 7.24905396 13.68475342 C8.28195459 17.01549683 9.29723048 20.35134415 10.3125 23.6875 C11.02706383 26.00364915 11.74265122 28.31948275 12.45922852 30.63500977 C14.65682835 37.75141179 16.83074508 44.8749147 19 52 C19.65786501 54.15820696 20.31574218 56.31641022 20.97363281 58.47460938 C23.38316348 66.3840091 25.78906001 74.29449755 28.18505859 82.20800781 C31.68194332 93.74723969 35.27759316 105.2459879 39.00146484 116.71411133 C41.41950034 124.16519585 43.77159307 131.63381034 46.0625 139.125 C46.36212646 140.09880615 46.66175293 141.0726123 46.97045898 142.07592773 C47.23930908 142.96094971 47.50815918 143.84597168 47.78515625 144.7578125 C48.02113525 145.5327002 48.25711426 146.30758789 48.50024414 147.10595703 C49 149 49 149 49 151 C49.64363023 150.99907821 50.28726046 150.99815641 50.95039463 150.99720669 C66.72254575 150.97497446 82.49469131 150.95850312 98.26685429 150.94818783 C105.89462413 150.9430649 113.52238342 150.93610004 121.15014648 150.92456055 C127.81033554 150.91448976 134.47051694 150.9081176 141.1307134 150.90591151 C144.64646348 150.90462509 148.16219169 150.90167441 151.67793465 150.89426994 C168.14844596 150.86088896 184.55208043 151.1057283 201 152 C201 152.99 201 153.98 201 155 C199.38623047 156.54296875 199.38623047 156.54296875 197.1171875 158.1875 C196.28646729 158.79827393 195.45574707 159.40904785 194.59985352 160.03833008 C193.70065186 160.68568115 192.8014502 161.33303223 191.875 162 C190.02640243 163.35679132 188.17875005 164.71487136 186.33203125 166.07421875 C185.42018066 166.74243652 184.50833008 167.4106543 183.56884766 168.09912109 C180.18109435 170.60596839 176.86215267 173.19132974 173.5625 175.8125 C172.445448 176.69678578 171.32826294 177.5809035 170.2109375 178.46484375 C169.67694336 178.88749512 169.14294922 179.31014648 168.59277344 179.74560547 C160.23978769 186.32402987 151.74537336 192.72718058 143.29760742 199.18310547 C137.97490826 203.25154009 132.66320235 207.33393111 127.35546875 211.421875 C124.92465826 213.29184143 122.48890965 215.15521045 120.05078125 217.015625 C111.7463727 223.35251264 103.47022092 229.7228244 95.23950195 236.15527344 C93.16364502 237.77538444 91.08278455 239.38880788 89 241 C88.26281738 241.57508301 87.52563477 242.15016602 86.76611328 242.74267578 C85.69272705 243.56807861 85.69272705 243.56807861 84.59765625 244.41015625 C83.95449463 244.90781494 83.31133301 245.40547363 82.64868164 245.91821289 C81 247 81 247 79 247 C79.36061523 248.06371826 79.72123047 249.12743652 80.09277344 250.22338867 C84.01699599 261.86012345 87.67887217 273.56329525 91.25 285.3125 C91.86636087 287.33398136 92.48298998 289.35538096 93.09985352 291.37670898 C94.1449059 294.801463 95.18969382 298.22629648 96.23365784 301.65138245 C99.73542478 313.13970171 103.24792204 324.62473013 106.76171875 336.109375 C107.05606686 337.07145056 107.35041496 338.03352612 107.65368271 339.02475548 C108.84901416 342.93164381 110.04437423 346.83852337 111.23978615 350.74538708 C114.17174412 360.32770988 117.1027735 369.91031661 120.03363991 379.49297333 C120.82878581 382.09275163 121.62394677 384.69252533 122.41911316 387.29229736 C123.61275144 391.19486205 124.80637932 395.09742993 126 399 C124.15600586 399.59545898 124.15600586 399.59545898 122 400 C119.50390625 398.47265625 119.50390625 398.47265625 116.5625 396.0625 C115.40993181 395.13667766 114.25619969 394.2123032 113.1015625 393.2890625 C112.45864258 392.76989258 111.81572266 392.25072266 111.15332031 391.71582031 C106.9711615 388.38336996 102.69676349 385.17037125 98.4375 381.9375 C97.52427979 381.24197021 96.61105957 380.54644043 95.67016602 379.82983398 C90.03956782 375.54171756 84.38840264 371.28318849 78.71875 367.046875 C75.25797238 364.44134702 71.83234507 361.79140021 68.4050293 359.14208984 C63.41190095 355.29405421 58.36290115 351.52238568 53.3125 347.75 C46.73860052 342.83694696 40.21532459 337.86757918 33.75 332.8125 C27.97760614 328.29947973 22.17500057 323.83300248 16.3125 319.4375 C15.67731445 318.96094971 15.04212891 318.48439941 14.38769531 317.9934082 C13.18601783 317.09566376 11.9796262 316.20418654 10.76806641 315.31982422 C9.54288933 314.40525542 8.34310229 313.45605303 7.16552734 312.48095703 C5.17454263 310.82717662 5.17454263 310.82717662 2 309 C-2.2999664 309.69711577 -5.38528363 312.64949261 -8.75 315.3125 C-9.91109639 316.22311794 -11.07257365 317.13325039 -12.234375 318.04296875 C-13.15379883 318.76685791 -13.15379883 318.76685791 -14.09179688 319.50537109 C-17.37200975 322.07464735 -20.68730279 324.59783976 -24 327.125 C-25.44142118 328.22654297 -26.88282695 329.3281061 -28.32421875 330.4296875 C-29.88273162 331.61989758 -31.44132961 332.80999621 -33 334 C-33.86318848 334.6590332 -34.72637695 335.31806641 -35.61572266 335.99707031 C-44.72585398 342.95044396 -53.84021188 349.89597997 -63.01953125 356.7578125 C-68.13873591 360.60895729 -73.21838857 364.51181598 -78.3046875 368.40625 C-85.15157232 373.64844169 -92.00531081 378.88147334 -98.875 384.09375 C-102.18776934 386.60946205 -105.47782121 389.15050211 -108.75 391.71875 C-109.4814624 392.28585693 -110.2129248 392.85296387 -110.96655273 393.43725586 C-112.32813589 394.49305773 -113.68232097 395.55849539 -115.02758789 396.63500977 C-116.84765625 398.03515625 -116.84765625 398.03515625 -120 400 C-122.19702148 399.62280273 -122.19702148 399.62280273 -124 399 C-123.72454849 398.10958008 -123.44909698 397.21916016 -123.16529846 396.30175781 C-119.62870828 384.86855653 -116.09498015 373.43447176 -112.5625 362 C-112.13782692 360.62550564 -112.13782692 360.62550564 -111.70457458 359.22324371 C-102.66574208 329.96733813 -102.66574208 329.96733813 -93.73046875 300.6796875 C-93.53352983 300.0301133 -93.33659092 299.38053909 -93.13368416 298.71128082 C-91.1554648 292.18432529 -89.18345972 285.65551966 -87.21704102 279.125 C-83.97014325 268.35907069 -80.65372647 257.63578932 -77 247 C-77.607229 246.70738281 -78.21445801 246.41476563 -78.84008789 246.11328125 C-81.61476845 244.68313054 -83.95193336 242.88862594 -86.4375 241 C-86.96190674 240.60264648 -87.48631348 240.20529297 -88.02661133 239.79589844 C-92.85225114 236.13245085 -97.65197373 232.43488492 -102.44921875 228.734375 C-106.45717363 225.64450686 -110.47861579 222.57235725 -114.5 219.5 C-120.55073131 214.87624569 -126.59129441 210.2397033 -132.625 205.59375 C-136.57677422 202.55392367 -140.53860018 199.52726485 -144.5 196.5 C-152.71206547 190.22400115 -160.90529082 183.92395531 -169.09375 177.6171875 C-172.394442 175.07630827 -175.69642958 172.53713514 -179 170 C-179.71897461 169.44779785 -180.43794922 168.8955957 -181.17871094 168.32666016 C-183.49326132 166.54995696 -185.8089774 164.77478352 -188.125 163 C-189.22763184 162.15344849 -189.22763184 162.15344849 -190.35253906 161.28979492 C-191.0431543 160.7610376 -191.73376953 160.23228027 -192.4453125 159.6875 C-193.05906738 159.21699219 -193.67282227 158.74648437 -194.30517578 158.26171875 C-195.83367733 157.12381958 -197.41448422 156.05701052 -199 155 C-198.505 153.02 -198.505 153.02 -198 151 C-148.17 151 -98.34 151 -47 151 C-46.01 147.04 -45.02 143.08 -44 139 C-43.02264138 135.70874772 -42.02509797 132.43709095 -40.98046875 129.16796875 C-40.68923126 128.24549347 -40.39799377 127.32301819 -40.09793091 126.37258911 C-39.46394163 124.36516686 -38.82843422 122.35822356 -38.19155884 120.35171509 C-36.41902141 114.76569816 -34.65909471 109.17570815 -32.8984375 103.5859375 C-32.51639664 102.37374039 -32.13435577 101.16154327 -31.74073792 99.91261292 C-26.54176415 83.3967503 -21.43080392 66.85349873 -16.3125 50.3125 C-15.83092956 48.75637597 -15.34935207 47.20025413 -14.86776733 45.64413452 C-14.63292381 44.88528206 -14.39808029 44.1264296 -14.1561203 43.3445816 C-13.688694 41.83421577 -13.22125131 40.32385501 -12.75379181 38.81349945 C-11.67279843 35.32078511 -10.59203185 31.82800122 -9.51199341 28.33499146 C-8.73820824 25.8336971 -7.96330164 23.33274933 -7.18716431 20.83218384 C-6.32853331 18.06556183 -5.47755203 15.29667543 -4.6289978 12.52694702 C-4.1748603 11.05334166 -3.72064869 9.57975914 -3.26635742 8.10620117 C-3.05453732 7.41046399 -2.84271723 6.71472681 -2.62447834 5.99790668 C-1.11318996 1.11318996 -1.11318996 1.11318996 0 0 Z " fill="#040404" transform="translate(199,0)"/>
<path d="M0 0 C3.59391114 1.33488128 6.75490696 2.96022723 10 5 C10 3.35 10 1.7 10 0 C11.41377341 2.63904371 12.37240135 5.07120629 13 8 C7.63951758 7.66496985 3.90710652 4.4126588 0 1 C0 0.67 0 0.34 0 0 Z " fill="#4F4F4F" transform="translate(312,392)"/>
<path d="M0 0 C0.95904856 3.83619425 0.91892116 5.32431536 0 9 C0.66 9.33 1.32 9.66 2 10 C0.35 10.33 -1.3 10.66 -3 11 C-2.01 7.37 -1.02 3.74 0 0 Z " fill="#595959" transform="translate(78,389)"/>
</svg>
